<?xml version="1.0" encoding="utf-8"?>
<!-- Generator: Adobe Illustrator 19.1.0, SVG Export Plug-In . SVG Version: 6.00 Build 0)  -->
<svg version="1.1" xmlns="http://www.w3.org/2000/svg" xmlns:xlink="http://www.w3.org/1999/xlink" x="0px" y="0px"
	 viewBox="0 0 150 100" style="enable-background:new 0 0 150 100;" xml:space="preserve">
<style type="text/css">
	.st0{display:none;}
	.st1{display:inline;fill:#DBDBDB;}
	.st2{fill:#DBDBDB;}
	.st3{fill:#B3B3B3;}
	.st4{fill:#FFFFFF;}
</style>
<g id="Layer_2" class="st0">
	<rect class="st1" width="150" height="100"/>
</g>
<g id="Layer_1">
	<g>
		<path class="st2" d="M50.8,46.1l17.8-9.8c1.8-1,1.5-3.6-0.4-4.2l-5.8-1.8c-0.6-0.2-1.3-0.1-1.8,0.2L42.2,41
			c-1.8,1-3.3-0.5-2.7-2.5L43.1,27c0.4-1.2-0.9-3-2.1-3.3l-5.5-1.7c-1.2-0.4-2.5,0.3-2.9,1.5l-13,41c-0.4,1.2,0.7,2.6,1.9,2.9
			l5.5,1.3c1.2,0.4,4.2-0.3,4.6-1.5l3.3-10.7c0.2-0.6,0.6-1,1.1-1.3l1.1-0.2c1-0.6,1.2-1.4,2.3-1c0.9,0.3,1.1,0.7,1.3,1.5l6.9,19.1
			c0.2,0.7,0.8,1.2,1.5,1.5l7,1.7c1.8,0.6,3.2-1.2,2.6-3l-8.9-25.7C49.4,47.9,49.8,46.7,50.8,46.1z"/>
	</g>
	<path class="st3" d="M61.3,95.5c1.7,0.5,5.9-2,6.4-3.6l21-67.5c0.5-1.6-1.7-4.3-3.5-4.8l-54-16.8c-1.7-0.5-5.6,1.9-6,3.5l58.4,18.1
		L61.3,95.5z"/>
	<path class="st4" d="M82.6,22.1l-54-16.8c-1.7-0.5-3.6,0.4-4.1,2.2L3.6,74.4c-0.5,1.7,0.4,3.6,2.2,4.1l54,16.8
		c1.7,0.5,3.6-0.4,4.1-2.2l20.8-66.9C85.3,24.5,84.3,22.7,82.6,22.1z M68.7,36.7l-17.5,9.7c-1,0.5-1.4,1.7-1,2.7l8.8,25.3
		c0.6,1.8-0.7,3.5-2.5,2.9l-6.9-1.7c-0.7-0.2-1.2-0.7-1.5-1.4l-6.8-18.8c-0.3-0.8-0.5-1.3-1.3-1.5c-1.1-0.3-1.3-0.1-2.5,0.1
		l-1.6,0.6c-0.5,0.3-1.8,1.3-2,1.9l-3.3,10.5c-0.4,1.2-1.6,1.9-2.8,1.5l-5.4-1.2c-1.2-0.4-2.3-1.7-1.9-2.9L33.3,24
		c0.4-1.2,1.6-1.9,2.8-1.5l5.4,1.7c1.2,0.4,1.9,1.6,1.5,2.8l-3.6,11.7c-0.6,2,1.5,3.7,3.3,2.6L60.7,31c0.5-0.3,1.2-0.4,1.8-0.2
		l5.7,1.8C70.2,33.1,70.4,35.7,68.7,36.7z"/>
	<path class="st3" d="M30.3,67.4c0,0-1.9,3.6-4.4,2.8c-2.5-0.7-5.7-1.8-5.7-1.8s-2.7-1.8-1.8-4.6c0.8-2.6,10.8-33.8,12.3-39.3
		c0.6-2,3.8-2.2,4.7-2.1c0,0-1.8,0.3-2.3,2.1s-12,38.7-12,38.7s-0.9,2.6,0.9,3.4c1.9,0.8,5.8,1.8,5.8,1.8S29.9,68.1,30.3,67.4z"/>
	<path class="st3" d="M35.8,54.5c0,0,4-2.7,5.6,0.1l6.7,18.7c0,0,0.3,1.3,1.9,1.9s6.3,1.9,6.3,1.9s0.9,0.2,1.2,0
		c0,0-2.6,2.4-4.1,1.9c-1.5-0.5-6.2-1.9-6.2-1.9s-1.5-0.6-1.8-2.1c-0.3-1.5-6-18.6-6.6-19.5C38.2,54.7,36.7,54.5,35.8,54.5z"/>
	<g>
		<path class="st2" d="M108,84c0-0.4-0.1-0.8-0.2-1.1c-0.1-0.5-0.4-0.9-0.7-1.3c-0.3-0.4-0.7-0.7-1.2-0.9c-0.5-0.2-1-0.3-1.6-0.3
			c-0.5,0-1,0.1-1.4,0.3c-0.4,0.2-0.8,0.5-1.1,0.9"/>
		<path class="st2" d="M102.9,80.6c-0.3,0.4-0.6,0.8-0.8,1.3c-0.1,0.3-0.2,0.6-0.3,1c-0.1,0.4,0.2,0.7,0.6,0.7h5.6"/>
	</g>
	<g>
		<path class="st2" d="M138.3,88.9c0.1-0.1,0.2-0.3,0.2-0.4v-1.6c0-0.3-0.3-0.6-0.6-0.6h-2.5c-0.6,0-1.1,0.1-1.5,0.2
			c-0.4,0.1-0.8,0.3-1.1,0.5"/>
		<path class="st2" d="M133.2,86.8c-0.1,0.3-0.2,0.7-0.2,1c0,0.3,0,0.5,0.1,0.8c0.1,0.2,0.2,0.5,0.4,0.6c0.2,0.2,0.4,0.3,0.7,0.4
			c0.3,0.1,0.7,0.2,1.1,0.2c0.6,0,1.2-0.2,1.9-0.5c0.7-0.3,1.3-0.8,2.1-1.4"/>
	</g>
	<g>
		<g>
			<path class="st3" d="M96.1,86.2c0,0.9-0.2,1.6-0.5,2.3s-0.8,1.2-1.4,1.7c-0.6,0.5-1.4,0.8-2.2,1c-0.9,0.2-1.9,0.4-2.9,0.4h-4.1
				c-0.3,0-0.6-0.3-0.6-0.6l-1-16.1c0-0.3,1.3-1.4,1.6-1.4h4.6c4,0,6,1.5,6,4.4c0,1-0.2,1.8-0.7,2.5c-0.5,0.7-1.2,1.2-2.3,1.6
				c0.5,0.1,0.9,0.2,1.4,0.5s0.8,0.5,1.2,0.9c0.3,0.3,0.6,0.8,0.8,1.2C96,85.1,96.1,85.6,96.1,86.2z M92.9,78.3c0-0.4-0.1-0.7-0.2-1
				s-0.3-0.6-0.6-0.8s-0.6-0.4-1.1-0.6c-0.5-0.1-1.1-0.2-1.8-0.2h-2c-0.3,0-0.6,0.3-0.6,0.6v4.5c0,0.3,0.3,0.6,0.6,0.6h1.9
				c0.6,0,1.1-0.1,1.5-0.2c0.5-0.1,0.8-0.3,1.2-0.6c0.3-0.2,0.6-0.6,0.8-0.9C92.8,79.3,92.9,78.8,92.9,78.3z M93.5,86.3
				c0-0.5-0.1-0.9-0.3-1.2c-0.2-0.4-0.5-0.7-0.8-0.9c-0.4-0.3-0.8-0.4-1.3-0.6c-0.5-0.1-1.1-0.2-1.8-0.2h-1.9
				c-0.3,0-0.6,0.3-0.6,0.6v5c0,0.3,0.3,0.6,0.6,0.6h2c1.4,0,2.5-0.3,3.1-0.8C93.2,88.2,93.5,87.4,93.5,86.3z"/>
			<path class="st3" d="M111.5,83.9c0,0.3,0,0.6,0,0.9s-1,1.4-1,1.6l-8.1-1c-0.3,0-0.6,0.3-0.6,0.7c0.1,1.1,0.5,2,1.2,2.6
				c0.8,0.8,1.9,1.1,3.4,1.1c0.4,0,0.8,0,1.2,0c0.4,0,0.8-0.1,1.2-0.1c0.4-0.1,0.7-0.1,1.1-0.2s0.7-0.1,1-0.2v1.5
				c0,0.3-1.2,1.5-1.4,1.6c-0.5,0.1-0.1-0.8-0.8-0.7c-0.8,0.1-1.7,0.2-2.6,0.2c-1.2,0-2.2-0.2-3.1-0.5c-0.9-0.3-1.6-0.8-2.1-1.4
				c-0.5-0.6-1-1.4-1.2-2.2s-0.4-1.9-0.4-3c0-1,0.1-1.9,0.4-2.8s0.7-1.6,1.2-2.3c0.5-0.7,1.2-1.2,2-1.6s1.7-0.6,2.7-0.6
				c1,0,1.8,0.2,2.6,0.5c0.7,0.3,1.4,0.7,1.9,1.3s0.9,1.2,1.2,2C111.4,82.1,111.5,83,111.5,83.9z M108.4,83.6c0.3,0,0.6-0.3,0.6-0.6
				c0-0.4-0.1-0.8-0.2-1.1c-0.1-0.5-0.4-0.9-0.7-1.3c-0.3-0.4-0.7-0.7-1.2-0.9c-0.5-0.2-1-0.3-1.6-0.3c-0.5,0-1,0.1-1.4,0.3
				c-0.4,0.2-0.8,0.5-1.1,0.9c-0.3,0.4-0.6,0.8-0.8,1.3c-0.1,0.3-0.2,0.6-0.3,1c-0.1,0.4,0.2,0.7,0.6,0.7H108.4z"/>
			<path class="st3" d="M126.5,90.9c0,0.3-0.9,1.4-1.2,1.4c-0.4,0.1-0.1-0.7-0.5-0.7c-0.6,0.1-1.2,0.1-1.8,0.1c-1.7,0-3-0.4-3.9-1.2
				c-0.9-0.8-1.3-2-1.3-3.6v-6.6c0-0.3-0.3-0.6-0.6-0.6h-2.7c-0.3,0-0.6-0.3-0.6-0.6l-1-0.1c0-0.3,1.3-1.4,1.6-1.4h2.7
				c0.3,0,0.6-0.3,0.6-0.6l-1-1.8c0-0.3,0.8-1.4,1.1-1.5l1.6-0.4c0.4-0.1,0.7,0.2,0.7,0.6v3.1c0,0.3,0.3,0.6,0.6,0.6h5.1
				c0.3,0,0.6,0.3,0.6,0.6v0.9c0,0.3-1.3,1.6-1.6,1.6l-4.1-1c-0.3,0-0.6,0.3-0.6,0.6v6.4c0,1,0.3,1.7,0.8,2.2
				c0.5,0.5,1.3,0.7,2.3,0.7c0.4,0,0.9,0,1.4-0.1c0.3,0,0.6-0.1,0.9-0.2c0.4-0.1,0.7,0.2,0.7,0.6V90.9z"/>
			<path class="st3" d="M140.3,91.6c-0.3,0-0.6-0.2-0.6-0.6l0-1.3c-0.8,0.7-1.5,1.3-2.3,1.6s-1.6,0.5-2.4,0.5c-0.8,0-1.5-0.1-2-0.3
				c-0.6-0.2-1-0.5-1.4-0.8c-0.4-0.4-0.6-0.8-0.8-1.2c-0.2-0.5-0.3-1-0.3-1.6c0-1.4,0.5-2.5,1.6-3.3c1-0.8,2.6-1.2,4.6-1.2h2.9v-1.2
				c0-0.8-0.3-1.5-0.8-2c-0.5-0.5-1.3-0.7-2.4-0.7c-0.8,0-1.6,0.1-2.3,0.3c-0.5,0.1-1,0.3-1.6,0.5c-0.4,0.1-1.8-0.5-1.8-0.9l1-1
				c0.3-0.1,0.6-0.2,1-0.3s0.8-0.2,1.2-0.3c0.4-0.1,0.8-0.1,1.3-0.2c0.5-0.1,0.9-0.1,1.4-0.1c0.8,0,1.6,0.1,2.3,0.3
				c0.7,0.2,1.2,0.5,1.7,0.8c0.5,0.4,0.8,0.8,1.1,1.4c0.2,0.6,0.4,1.2,0.4,2v9c0,0.3-1.1,1.6-1.4,1.6L140.3,91.6z M139.5,85.9
				c0-0.3-0.3-0.6-0.6-0.6h-2.5c-0.6,0-1.1,0.1-1.5,0.2c-0.4,0.1-0.8,0.3-1.1,0.5c-0.3,0.2-0.5,0.5-0.6,0.8c-0.1,0.3-0.2,0.7-0.2,1
				c0,0.3,0,0.5,0.1,0.8c0.1,0.2,0.2,0.5,0.4,0.6c0.2,0.2,0.4,0.3,0.7,0.4c0.3,0.1,0.7,0.2,1.1,0.2c0.6,0,1.2-0.2,1.9-0.5
				c0.7-0.3,1.3-0.8,2.1-1.4c0.1-0.1,0.2-0.3,0.2-0.4V85.9z"/>
		</g>
		<g>
			<path class="st4" d="M95.1,87.2c0,0.9-0.2,1.6-0.5,2.3s-0.8,1.2-1.4,1.7c-0.6,0.5-1.4,0.8-2.2,1c-0.9,0.2-1.9,0.4-2.9,0.4h-4.1
				c-0.3,0-0.6-0.3-0.6-0.6V75.2c0-0.3,0.3-0.6,0.6-0.6h4.6c4,0,6,1.5,6,4.4c0,1-0.2,1.8-0.7,2.5c-0.5,0.7-1.2,1.2-2.3,1.6
				c0.5,0.1,0.9,0.2,1.4,0.5s0.8,0.5,1.2,0.9c0.3,0.3,0.6,0.8,0.8,1.2C95,86.1,95.1,86.6,95.1,87.2z M91.9,79.3c0-0.4-0.1-0.7-0.2-1
				s-0.3-0.6-0.6-0.8s-0.6-0.4-1.1-0.6c-0.5-0.1-1.1-0.2-1.8-0.2h-2c-0.3,0-0.6,0.3-0.6,0.6v4.5c0,0.3,0.3,0.6,0.6,0.6h1.9
				c0.6,0,1.1-0.1,1.5-0.2c0.5-0.1,0.8-0.3,1.2-0.6c0.3-0.2,0.6-0.6,0.8-0.9C91.8,80.3,91.9,79.8,91.9,79.3z M92.5,87.3
				c0-0.5-0.1-0.9-0.3-1.2c-0.2-0.4-0.5-0.7-0.8-0.9c-0.4-0.3-0.8-0.4-1.3-0.6c-0.5-0.1-1.1-0.2-1.8-0.2h-1.9
				c-0.3,0-0.6,0.3-0.6,0.6v5c0,0.3,0.3,0.6,0.6,0.6h2c1.4,0,2.5-0.3,3.1-0.8C92.2,89.2,92.5,88.4,92.5,87.3z"/>
			<path class="st4" d="M110.5,84.9c0,0.3,0,0.6,0,0.9s0,0.4,0,0.6h-9.1c-0.3,0-0.6,0.3-0.6,0.7c0.1,1.1,0.5,2,1.2,2.6
				c0.8,0.8,1.9,1.1,3.4,1.1c0.4,0,0.8,0,1.2,0c0.4,0,0.8-0.1,1.2-0.1c0.4-0.1,0.7-0.1,1.1-0.2s0.7-0.1,1-0.2v1.5
				c0,0.3-0.2,0.5-0.4,0.6c-0.5,0.1-1.1,0.2-1.8,0.3c-0.8,0.1-1.7,0.2-2.6,0.2c-1.2,0-2.2-0.2-3.1-0.5c-0.9-0.3-1.6-0.8-2.1-1.4
				c-0.5-0.6-1-1.4-1.2-2.2s-0.4-1.9-0.4-3c0-1,0.1-1.9,0.4-2.8s0.7-1.6,1.2-2.3c0.5-0.7,1.2-1.2,2-1.6s1.7-0.6,2.7-0.6
				c1,0,1.8,0.2,2.6,0.5c0.7,0.3,1.4,0.7,1.9,1.3s0.9,1.2,1.2,2C110.4,83.1,110.5,84,110.5,84.9z M107.4,84.6c0.3,0,0.6-0.3,0.6-0.6
				c0-0.4-0.1-0.8-0.2-1.1c-0.1-0.5-0.4-0.9-0.7-1.3c-0.3-0.4-0.7-0.7-1.2-0.9c-0.5-0.2-1-0.3-1.6-0.3c-0.5,0-1,0.1-1.4,0.3
				c-0.4,0.2-0.8,0.5-1.1,0.9c-0.3,0.4-0.6,0.8-0.8,1.3c-0.1,0.3-0.2,0.6-0.3,1c-0.1,0.4,0.2,0.7,0.6,0.7H107.4z"/>
			<path class="st4" d="M125.5,91.9c0,0.3-0.2,0.5-0.5,0.6c-0.4,0.1-0.8,0.1-1.2,0.2c-0.6,0.1-1.2,0.1-1.8,0.1c-1.7,0-3-0.4-3.9-1.2
				c-0.9-0.8-1.3-2-1.3-3.6v-6.6c0-0.3-0.3-0.6-0.6-0.6h-2.7c-0.3,0-0.6-0.3-0.6-0.6v-0.9c0-0.3,0.3-0.6,0.6-0.6h2.7
				c0.3,0,0.6-0.3,0.6-0.6v-2.8c0-0.3,0.2-0.5,0.4-0.6l1.2-0.3c0.4-0.1,0.7,0.2,0.7,0.6v3.1c0,0.3,0.3,0.6,0.6,0.6h5.1
				c0.3,0,0.6,0.3,0.6,0.6v0.9c0,0.3-0.3,0.6-0.6,0.6h-5.1c-0.3,0-0.6,0.3-0.6,0.6v6.4c0,1,0.3,1.7,0.8,2.2c0.5,0.5,1.3,0.7,2.3,0.7
				c0.4,0,0.9,0,1.4-0.1c0.3,0,0.6-0.1,0.9-0.2c0.4-0.1,0.7,0.2,0.7,0.6V91.9z"/>
			<path class="st4" d="M139.3,92.6c-0.3,0-0.6-0.2-0.6-0.6l0-1.3c-0.8,0.7-1.5,1.3-2.3,1.6s-1.6,0.5-2.4,0.5c-0.8,0-1.5-0.1-2-0.3
				c-0.6-0.2-1-0.5-1.4-0.8c-0.4-0.4-0.6-0.8-0.8-1.2c-0.2-0.5-0.3-1-0.3-1.6c0-1.4,0.5-2.5,1.6-3.3c1-0.8,2.6-1.2,4.6-1.2h2.9v-1.2
				c0-0.8-0.3-1.5-0.8-2c-0.5-0.5-1.3-0.7-2.4-0.7c-0.8,0-1.6,0.1-2.3,0.3c-0.5,0.1-1,0.3-1.6,0.5c-0.4,0.1-0.8-0.1-0.8-0.5v-1.3
				c0.3-0.1,0.6-0.2,1-0.3s0.8-0.2,1.2-0.3c0.4-0.1,0.8-0.1,1.3-0.2c0.5-0.1,0.9-0.1,1.4-0.1c0.8,0,1.6,0.1,2.3,0.3
				c0.7,0.2,1.2,0.5,1.7,0.8c0.5,0.4,0.8,0.8,1.1,1.4c0.2,0.6,0.4,1.2,0.4,2v9c0,0.3-0.3,0.6-0.6,0.6H139.3z M138.5,86.9
				c0-0.3-0.3-0.6-0.6-0.6h-2.5c-0.6,0-1.1,0.1-1.5,0.2c-0.4,0.1-0.8,0.3-1.1,0.5c-0.3,0.2-0.5,0.5-0.6,0.8c-0.1,0.3-0.2,0.7-0.2,1
				c0,0.3,0,0.5,0.1,0.8c0.1,0.2,0.2,0.5,0.4,0.6c0.2,0.2,0.4,0.3,0.7,0.4c0.3,0.1,0.7,0.2,1.1,0.2c0.6,0,1.2-0.2,1.9-0.5
				c0.7-0.3,1.3-0.8,2.1-1.4c0.1-0.1,0.2-0.3,0.2-0.4V86.9z"/>
		</g>
	</g>
	<path class="st2" d="M86.7,76.7v4.1c0,0.3,0.3,0.6,0.6,0.6h1.9c0.6,0,1.1-0.1,1.5-0.2c0.4-0.1,0.9-0.3,0.9-0.3l0.1-0.1
		c0.2-0.4,0.3-0.8,0.3-1.3c0-0.4-0.1-0.7-0.2-1s-0.3-0.6-0.6-0.8s-0.6-0.4-1.1-0.6c-0.5-0.1-1.1-0.2-1.8-0.2H86.7"/>
	<path class="st2" d="M91.5,89.7c0.7-0.5,1-1.3,1-2.5c0-0.5-0.1-0.9-0.3-1.2c-0.2-0.4-0.5-0.7-0.8-0.9c-0.4-0.3-0.8-0.4-1.3-0.6
		c-0.5-0.1-1.1-0.2-1.8-0.2h-1.5v4.6c0,0.3,0.3,0.6,0.6,0.6h2c1.4,0,2.1-0.1,2.8-0.6"/>
</g>
</svg>
