<?xml version="1.0" encoding="utf-8"?>
<!-- Generator: Adobe Illustrator 19.1.0, SVG Export Plug-In . SVG Version: 6.00 Build 0)  -->
<svg version="1.1" xmlns="http://www.w3.org/2000/svg" xmlns:xlink="http://www.w3.org/1999/xlink" x="0px" y="0px"
	 viewBox="0 0 150 100" style="enable-background:new 0 0 150 100;" xml:space="preserve">
<style type="text/css">
	.st0{display:none;}
	.st1{display:inline;fill:#F2F2F2;}
	.st2{fill:#DBDBDB;}
	.st3{fill:#B3B3B3;}
	.st4{fill:#FFFFFF;}
</style>
<g id="Layer_2" class="st0">
	<rect class="st1" width="150" height="100"/>
</g>
<g id="Layer_1">
	<g>
		<path class="st2" d="M51.8,47.1l17.8-9.8c1.8-1,1.5-3.6-0.4-4.2l-5.8-1.8c-0.6-0.2-1.3-0.1-1.8,0.2L43.2,42
			c-1.8,1-3.3-0.5-2.7-2.5L44.1,28c0.4-1.2-0.9-3-2.1-3.3l-5.5-1.7c-1.2-0.4-2.5,0.3-2.9,1.5l-13,41c-0.4,1.2,0.7,2.6,1.9,2.9
			l5.5,1.3c1.2,0.4,4.2-0.3,4.6-1.5l3.3-10.7c0.2-0.6,0.6-1,1.1-1.3l1.1-0.2c1-0.6,1.2-1.4,2.3-1c0.9,0.3,1.1,0.7,1.3,1.5l6.9,19.1
			c0.2,0.7,0.8,1.2,1.5,1.5l7,1.7c1.8,0.6,3.2-1.2,2.6-3l-8.9-25.7C50.4,48.9,50.8,47.7,51.8,47.1z"/>
	</g>
	<path class="st3" d="M62.3,96.5c1.7,0.5,5.9-2,6.4-3.6l21-67.5c0.5-1.6-1.7-4.3-3.5-4.8l-54-16.8c-1.7-0.5-5.6,1.9-6,3.5l58.4,18.1
		L62.3,96.5z"/>
	<path class="st4" d="M83.6,23.1l-54-16.8c-1.7-0.5-3.6,0.4-4.1,2.2L4.6,75.4c-0.5,1.7,0.4,3.6,2.2,4.1l54,16.8
		c1.7,0.5,3.6-0.4,4.1-2.2l20.8-66.9C86.3,25.5,85.3,23.7,83.6,23.1z M69.7,37.7l-17.5,9.7c-1,0.5-1.4,1.7-1,2.7l8.8,25.3
		c0.6,1.8-0.7,3.5-2.5,2.9l-6.9-1.7c-0.7-0.2-1.2-0.7-1.5-1.4l-6.8-18.8c-0.3-0.8-0.5-1.3-1.3-1.5c-1.1-0.3-1.3-0.1-2.5,0.1
		l-1.6,0.6c-0.5,0.3-1.8,1.3-2,1.9l-3.3,10.5c-0.4,1.2-1.6,1.9-2.8,1.5l-5.4-1.2c-1.2-0.4-2.3-1.7-1.9-2.9L34.3,25
		c0.4-1.2,1.6-1.9,2.8-1.5l5.4,1.7c1.2,0.4,1.9,1.6,1.5,2.8l-3.6,11.7c-0.6,2,1.5,3.7,3.3,2.6L61.7,32c0.5-0.3,1.2-0.4,1.8-0.2
		l5.7,1.8C71.2,34.1,71.4,36.7,69.7,37.7z"/>
	<path class="st3" d="M31.3,68.4c0,0-1.9,3.6-4.4,2.8c-2.5-0.7-5.7-1.8-5.7-1.8s-2.7-1.8-1.8-4.6c0.8-2.6,10.8-33.8,12.3-39.3
		c0.6-2,3.8-2.2,4.7-2.1c0,0-1.8,0.3-2.3,2.1s-12,38.7-12,38.7s-0.9,2.6,0.9,3.4c1.9,0.8,5.8,1.8,5.8,1.8S30.9,69.1,31.3,68.4z"/>
	<path class="st3" d="M36.8,55.5c0,0,4-2.7,5.6,0.1l6.7,18.7c0,0,0.3,1.3,1.9,1.9s6.3,1.9,6.3,1.9s0.9,0.2,1.2,0
		c0,0-2.6,2.4-4.1,1.9c-1.5-0.5-6.2-1.9-6.2-1.9s-1.5-0.6-1.8-2.1c-0.3-1.5-6-18.6-6.6-19.5C39.2,55.7,37.7,55.5,36.8,55.5z"/>
	<g>
		<path class="st3" d="M93.3,88.5c0,0.7-0.1,1.4-0.4,2c-0.3,0.6-0.7,1.1-1.2,1.4s-1.2,0.7-1.9,0.9c-0.8,0.2-1.6,0.3-2.5,0.3h-4V77.7
			h4.4c3.4,0,5.1,1.2,5.1,3.7c0,0.8-0.2,1.5-0.6,2.1c-0.4,0.6-1,1-1.9,1.3c0.4,0.1,0.8,0.2,1.2,0.4c0.4,0.2,0.7,0.4,1,0.7
			c0.3,0.3,0.5,0.7,0.7,1.1C93.2,87.6,93.3,88,93.3,88.5z M90.6,81.8c0-0.3,0-0.6-0.1-0.9c-0.1-0.3-0.3-0.5-0.5-0.7s-0.6-0.4-1-0.5
			c-0.4-0.1-0.9-0.2-1.5-0.2h-2.2v4.8h2.1c0.5,0,0.9-0.1,1.3-0.2c0.4-0.1,0.7-0.3,1-0.5c0.3-0.2,0.5-0.5,0.6-0.8
			C90.5,82.6,90.6,82.2,90.6,81.8z M91.1,88.6c0-0.4-0.1-0.7-0.2-1.1c-0.2-0.3-0.4-0.6-0.7-0.8c-0.3-0.2-0.7-0.4-1.1-0.5
			c-0.5-0.1-1-0.2-1.5-0.2h-2.1v5.3h2.2c1.2,0,2.1-0.2,2.7-0.7S91.1,89.5,91.1,88.6z"/>
		<path class="st3" d="M106.5,86.6c0,0.3,0,0.5,0,0.7s0,0.4,0,0.6h-8.3c0,1.2,0.3,2.1,1,2.8c0.7,0.6,1.6,1,2.9,1c0.3,0,0.7,0,1,0
			s0.7-0.1,1-0.1c0.3,0,0.6-0.1,0.9-0.2c0.3-0.1,0.6-0.1,0.8-0.2v1.7c-0.6,0.2-1.2,0.3-1.9,0.4c-0.7,0.1-1.4,0.1-2.2,0.1
			c-1,0-1.9-0.1-2.6-0.4s-1.3-0.7-1.8-1.2c-0.5-0.5-0.8-1.2-1-1.9S96,88.2,96,87.2c0-0.8,0.1-1.6,0.4-2.4s0.6-1.4,1-2
			c0.5-0.6,1-1,1.7-1.3c0.7-0.3,1.4-0.5,2.3-0.5c0.8,0,1.6,0.1,2.2,0.4c0.6,0.3,1.2,0.6,1.6,1.1c0.4,0.5,0.8,1.1,1,1.7
			C106.4,85,106.5,85.8,106.5,86.6z M104.3,86.3c0-0.5,0-1-0.2-1.4s-0.3-0.8-0.6-1.1c-0.3-0.3-0.6-0.6-1-0.7s-0.8-0.3-1.4-0.3
			c-0.4,0-0.9,0.1-1.2,0.3s-0.7,0.4-1,0.7c-0.3,0.3-0.5,0.7-0.6,1.1c-0.2,0.4-0.3,0.9-0.3,1.4H104.3z"/>
		<path class="st3" d="M119.3,93c-0.5,0.1-0.9,0.2-1.4,0.3c-0.5,0.1-1,0.1-1.5,0.1c-1.5,0-2.6-0.3-3.3-1c-0.7-0.7-1.1-1.7-1.1-3.1
			V83h-3.3v-1.7h3.3v-3.3l2-0.5v3.8h5.3V83H114v6c0,0.8,0.2,1.5,0.7,1.9c0.5,0.4,1.1,0.6,2,0.6c0.4,0,0.8,0,1.2-0.1
			c0.4-0.1,0.9-0.2,1.4-0.3V93z"/>
		<path class="st3" d="M130.6,93.1l0-1.6c-0.6,0.6-1.3,1.1-2,1.4c-0.7,0.3-1.4,0.4-2.1,0.4c-0.7,0-1.3-0.1-1.7-0.3
			c-0.5-0.2-0.9-0.4-1.2-0.7s-0.5-0.7-0.7-1.1c-0.1-0.4-0.2-0.9-0.2-1.3c0-1.2,0.4-2.1,1.3-2.8c0.9-0.7,2.2-1,3.9-1h2.5v-1
			c0-0.7-0.2-1.3-0.7-1.7c-0.4-0.4-1.1-0.6-2-0.6c-0.7,0-1.3,0.1-2,0.2c-0.6,0.1-1.3,0.4-2,0.6v-1.8c0.3-0.1,0.5-0.2,0.9-0.3
			c0.3-0.1,0.7-0.2,1-0.2c0.4-0.1,0.7-0.1,1.1-0.2s0.8-0.1,1.2-0.1c0.7,0,1.4,0.1,1.9,0.2s1.1,0.4,1.5,0.7s0.7,0.7,0.9,1.2
			c0.2,0.5,0.3,1.1,0.3,1.7v8.2H130.6z M130.4,87.7h-2.6c-0.5,0-1,0.1-1.3,0.2c-0.4,0.1-0.7,0.2-0.9,0.4c-0.2,0.2-0.4,0.4-0.5,0.7
			c-0.1,0.3-0.2,0.6-0.2,0.9c0,0.2,0,0.4,0.1,0.7c0.1,0.2,0.2,0.4,0.3,0.6c0.2,0.2,0.4,0.3,0.6,0.4c0.3,0.1,0.6,0.1,0.9,0.1
			c0.5,0,1-0.1,1.6-0.4c0.6-0.3,1.3-0.7,1.9-1.4V87.7z"/>
	</g>
</g>
</svg>
